# WaveFront *.obj file (generated by Autodesk ATF)

mtllib 55844949-3ce4-44c9-92cb-3ba6a53ace57.mtl

g Body1

v 3.000000 0.000000 2.500000
v 3.000000 -8.500000 2.500000
v 3.000000 -8.500000 5.000000
v 3.000000 0.000000 5.000000
v 8.000000 -8.500000 5.000000
v 8.000000 0.000000 5.000000
v -3.000000 0.000000 2.500000
v -3.000000 -8.500000 2.500000
v -3.000000 0.000000 5.000000
v -3.000000 -8.500000 5.000000
v -8.000000 -8.500000 5.000000
v -8.000000 0.000000 5.000000
v 8.000000 0.000000 10.000000
v -8.000000 0.000000 10.000000
v -8.000000 -8.500000 0.000000
v 8.000000 -8.500000 0.000000
v 5.000000 35.500000 10.000000
v 5.776457 35.397777 10.000000
v 6.500000 35.098076 10.000000
v 7.121320 34.621320 10.000000
v 7.598076 34.000000 10.000000
v 7.897777 33.276457 10.000000
v 8.000000 32.500000 10.000000
v 8.000000 32.500000 0.000000
v 7.897777 33.276457 0.000000
v 7.598076 34.000000 0.000000
v 7.121320 34.621320 0.000000
v 6.500000 35.098076 0.000000
v 5.776457 35.397777 0.000000
v 5.000000 35.500000 0.000000
v -5.000000 35.500000 10.000000
v -5.776457 35.397777 10.000000
v -6.500000 35.098076 10.000000
v -7.121320 34.621320 10.000000
v -7.598076 34.000000 10.000000
v -7.897777 33.276457 10.000000
v -8.000000 32.500000 10.000000
v -5.000000 35.500000 0.000000
v -5.776457 35.397777 0.000000
v -6.500000 35.098076 0.000000
v -7.121320 34.621320 0.000000
v -7.598076 34.000000 0.000000
v -7.897777 33.276457 0.000000
v -8.000000 32.500000 0.000000
vt -0.000000 0.000000 0.000000
vt 0.850000 0.000000 0.000000
vt -0.000000 0.250000 0.000000
vt 0.850000 0.250000 0.000000
vt -0.250000 -0.425000 0.000000
vt 0.250000 -0.425000 0.000000
vt -0.250000 0.425000 0.000000
vt 0.250000 0.425000 0.000000
vt 0.300000 0.425000 0.000000
vt -0.300000 0.425000 0.000000
vt 0.300000 -0.425000 0.000000
vt -0.300000 -0.425000 0.000000
vt 0.000000 0.000000 0.000000
vt 0.850000 0.000000 0.000000
vt 0.000000 0.250000 0.000000
vt 0.850000 0.250000 0.000000
vt -0.250000 -0.425000 0.000000
vt 0.250000 -0.425000 0.000000
vt -0.250000 0.425000 0.000000
vt 0.250000 0.425000 0.000000
vt 1.600000 0.500000 0.000000
vt 1.600000 1.000000 0.000000
vt 1.100000 0.500000 0.000000
vt 0.000000 1.000000 0.000000
vt 0.500000 0.500000 0.000000
vt -0.000000 0.500000 0.000000
vt 0.500000 0.250000 0.000000
vt 1.100000 0.250000 0.000000
vt 0.000000 0.500000 0.000000
vt 0.000000 0.000000 0.000000
vt 0.500000 0.250000 0.000000
vt 1.600000 0.000000 0.000000
vt 1.100000 0.250000 0.000000
vt 1.600000 0.500000 0.000000
vt 1.100000 0.500000 0.000000
vt 0.500000 0.500000 0.000000
vt -0.000000 0.235619 0.000000
vt -1.000000 0.235619 0.000000
vt -0.000000 0.157080 0.000000
vt -1.000000 0.157080 0.000000
vt -0.000000 0.078540 0.000000
vt -1.000000 0.078540 0.000000
vt -0.000000 0.000000 0.000000
vt -1.000000 0.000000 0.000000
vt -0.000000 -0.078540 0.000000
vt -1.000000 -0.078540 0.000000
vt -0.000000 -0.157080 0.000000
vt -1.000000 -0.157080 0.000000
vt -0.000000 -0.235619 0.000000
vt -1.000000 -0.235619 0.000000
vt -0.850000 0.000000 0.000000
vt 3.250000 0.000000 0.000000
vt 0.000000 0.500000 0.000000
vt 3.250000 1.000000 0.000000
vt 0.000000 1.000000 0.000000
vt -0.850000 0.500000 0.000000
vt 0.789778 1.552646 0.000000
vt 0.759808 1.625000 0.000000
vt 0.800000 1.475000 0.000000
vt 0.712132 1.687132 0.000000
vt 0.650000 1.734808 0.000000
vt 0.577646 1.764778 0.000000
vt 0.500000 1.775000 0.000000
vt 0.800000 -1.775000 0.000000
vt -0.500000 1.775000 0.000000
vt -0.800000 -1.775000 0.000000
vt -0.800000 1.475000 0.000000
vt -0.577646 1.764778 0.000000
vt -0.650000 1.734808 0.000000
vt -0.712132 1.687132 0.000000
vt -0.759808 1.625000 0.000000
vt -0.789778 1.552646 0.000000
vt -0.000000 0.235619 0.000000
vt -1.000000 0.235619 0.000000
vt -0.000000 0.157080 0.000000
vt -1.000000 0.157080 0.000000
vt -0.000000 0.078540 0.000000
vt -1.000000 0.078540 0.000000
vt -0.000000 -0.000000 0.000000
vt -1.000000 -0.000000 0.000000
vt -0.000000 -0.078540 0.000000
vt -1.000000 -0.078540 0.000000
vt -0.000000 -0.157080 0.000000
vt -1.000000 -0.157080 0.000000
vt -0.000000 -0.235619 0.000000
vt -1.000000 -0.235619 0.000000
vt 3.550000 1.000000 0.000000
vt 0.300000 1.000000 0.000000
vt 3.550000 0.500000 0.000000
vt 0.300000 0.000000 0.000000
vt 4.400000 0.000000 0.000000
vt 4.400000 0.500000 0.000000
vt 0.300000 0.000000 0.000000
vt 1.300000 0.000000 0.000000
vt 0.300000 1.000000 0.000000
vt 1.300000 1.000000 0.000000
vt -0.577646 1.764778 0.000000
vt -0.800000 1.475000 0.000000
vt -0.500000 1.775000 0.000000
vt -0.800000 -2.625000 0.000000
vt 0.800000 -2.625000 0.000000
vt -0.650000 1.734808 0.000000
vt -0.712132 1.687132 0.000000
vt -0.759808 1.625000 0.000000
vt -0.789778 1.552646 0.000000
vt 0.500000 1.775000 0.000000
vt 0.800000 1.475000 0.000000
vt 0.577646 1.764778 0.000000
vt 0.650000 1.734808 0.000000
vt 0.712132 1.687132 0.000000
vt 0.759808 1.625000 0.000000
vt 0.789778 1.552646 0.000000
vn -0.100000 0.000000 0.000000
vn -0.100000 0.000000 0.000000
vn -0.100000 0.000000 0.000000
vn -0.100000 0.000000 0.000000
vn 0.000000 0.000000 0.100000
vn 0.000000 0.000000 0.100000
vn 0.000000 0.000000 0.100000
vn 0.000000 0.000000 0.100000
vn 0.000000 0.000000 0.100000
vn 0.000000 0.000000 0.100000
vn 0.000000 0.000000 0.100000
vn 0.000000 0.000000 0.100000
vn 0.100000 0.000000 0.000000
vn 0.100000 0.000000 0.000000
vn 0.100000 0.000000 0.000000
vn 0.100000 0.000000 0.000000
vn 0.000000 0.000000 0.100000
vn 0.000000 0.000000 0.100000
vn 0.000000 0.000000 0.100000
vn 0.000000 0.000000 0.100000
vn 0.000000 -0.100000 0.000000
vn 0.000000 -0.100000 0.000000
vn 0.000000 -0.100000 0.000000
vn 0.000000 -0.100000 0.000000
vn 0.000000 -0.100000 0.000000
vn 0.000000 -0.100000 0.000000
vn 0.000000 -0.100000 0.000000
vn 0.000000 -0.100000 0.000000
vn 0.000000 -0.100000 0.000000
vn 0.000000 -0.100000 0.000000
vn 0.000000 -0.100000 0.000000
vn 0.000000 -0.100000 0.000000
vn 0.000000 -0.100000 0.000000
vn 0.000000 -0.100000 0.000000
vn 0.000000 -0.100000 0.000000
vn 0.000000 -0.100000 0.000000
vn 0.000000 0.100000 0.000000
vn 0.000000 0.100000 0.000000
vn 0.025882 0.096593 0.000000
vn 0.025882 0.096593 0.000000
vn 0.050000 0.086603 0.000000
vn 0.050000 0.086603 0.000000
vn 0.070711 0.070711 0.000000
vn 0.070711 0.070711 0.000000
vn 0.086603 0.050000 0.000000
vn 0.086603 0.050000 0.000000
vn 0.096593 0.025882 0.000000
vn 0.096593 0.025882 0.000000
vn 0.100000 0.000000 0.000000
vn 0.100000 0.000000 0.000000
vn 0.100000 0.000000 0.000000
vn 0.100000 0.000000 0.000000
vn 0.100000 0.000000 0.000000
vn 0.100000 0.000000 0.000000
vn 0.000000 0.000000 0.100000
vn 0.000000 0.000000 0.100000
vn 0.000000 0.000000 0.100000
vn 0.000000 0.000000 0.100000
vn 0.000000 0.000000 0.100000
vn 0.000000 0.000000 0.100000
vn 0.000000 0.000000 0.100000
vn 0.000000 0.000000 0.100000
vn 0.000000 0.000000 0.100000
vn 0.000000 0.000000 0.100000
vn 0.000000 0.000000 0.100000
vn 0.000000 0.000000 0.100000
vn 0.000000 0.000000 0.100000
vn 0.000000 0.000000 0.100000
vn 0.000000 0.000000 0.100000
vn 0.000000 0.000000 0.100000
vn -0.100000 0.000000 -0.000000
vn -0.100000 0.000000 -0.000000
vn -0.096593 0.025882 -0.000000
vn -0.096593 0.025882 -0.000000
vn -0.086603 0.050000 -0.000000
vn -0.086603 0.050000 -0.000000
vn -0.070711 0.070711 -0.000000
vn -0.070711 0.070711 -0.000000
vn -0.050000 0.086603 -0.000000
vn -0.050000 0.086603 -0.000000
vn -0.025882 0.096593 -0.000000
vn -0.025882 0.096593 -0.000000
vn -0.000000 0.100000 -0.000000
vn -0.000000 0.100000 -0.000000
vn -0.100000 0.000000 0.000000
vn -0.100000 0.000000 0.000000
vn -0.100000 0.000000 0.000000
vn -0.100000 0.000000 0.000000
vn 0.000000 0.000000 -0.100000
vn 0.000000 0.000000 -0.100000
vn 0.000000 0.000000 -0.100000
vn 0.000000 0.000000 -0.100000
vn 0.000000 0.000000 -0.100000
vn 0.000000 0.000000 -0.100000
vn 0.000000 0.000000 -0.100000
vn 0.000000 0.000000 -0.100000
vn 0.000000 0.000000 -0.100000
vn 0.000000 0.000000 -0.100000
vn 0.000000 0.000000 -0.100000
vn 0.000000 0.000000 -0.100000
vn 0.000000 0.000000 -0.100000
vn 0.000000 0.000000 -0.100000
vn 0.000000 0.000000 -0.100000
vn 0.000000 0.000000 -0.100000
usemtl Steel_-_Satin
f 1/1/1 2/2/2 4/3/3
f 4/3/3 2/2/2 3/4/4
f 3/5/5 5/6/6 4/7/7
f 4/7/7 5/6/6 6/8/8
f 1/9/9 7/10/10 2/11/11
f 2/11/11 7/10/10 8/12/12
f 8/13/13 7/14/14 10/15/15
f 10/15/15 7/14/14 9/16/16
f 11/17/17 10/18/18 12/19/19
f 12/19/19 10/18/18 9/20/20
f 6/21/21 13/22/22 4/23/23
f 4/23/23 13/22/22 14/24/24
f 4/23/23 14/24/24 9/25/25
f 9/25/25 14/24/24 12/26/26
f 7/27/27 1/28/28 9/25/25
f 9/25/25 1/28/28 4/23/23
f 11/29/29 15/30/30 8/31/31
f 8/31/31 15/30/30 16/32/32
f 8/31/31 16/32/32 2/33/33
f 2/33/33 16/32/32 5/34/34
f 2/33/33 5/34/34 3/35/35
f 8/31/31 10/36/36 11/29/29
f 30/37/37 17/38/38 29/39/39
f 29/39/39 17/38/38 18/40/40
f 29/39/39 18/40/40 28/41/41
f 28/41/41 18/40/40 19/42/42
f 28/41/41 19/42/42 27/43/43
f 27/43/43 19/42/42 20/44/44
f 27/43/43 20/44/44 26/45/45
f 26/45/45 20/44/44 21/46/46
f 26/45/45 21/46/46 25/47/47
f 25/47/47 21/46/46 22/48/48
f 25/47/47 22/48/48 24/49/49
f 24/49/49 22/48/48 23/50/50
f 16/51/51 24/52/49 6/53/52
f 6/53/52 24/52/49 23/54/50
f 6/53/52 23/54/50 13/55/53
f 6/53/52 5/56/54 16/51/51
f 22/57/55 21/58/56 23/59/57
f 23/59/57 21/58/56 20/60/58
f 23/59/57 20/60/58 19/61/59
f 19/61/59 18/62/60 23/59/57
f 23/59/57 18/62/60 17/63/61
f 23/59/57 17/63/61 13/64/62
f 13/64/62 17/63/61 31/65/63
f 13/64/62 31/65/63 14/66/64
f 14/66/64 31/65/63 37/67/65
f 37/67/65 31/65/63 32/68/66
f 37/67/65 32/68/66 33/69/67
f 33/69/67 34/70/68 37/67/65
f 37/67/65 34/70/68 35/71/69
f 37/67/65 35/71/69 36/72/70
f 44/73/71 37/74/72 43/75/73
f 43/75/73 37/74/72 36/76/74
f 43/75/73 36/76/74 42/77/75
f 42/77/75 36/76/74 35/78/76
f 42/77/75 35/78/76 41/79/77
f 41/79/77 35/78/76 34/80/78
f 41/79/77 34/80/78 40/81/79
f 40/81/79 34/80/78 33/82/80
f 40/81/79 33/82/80 39/83/81
f 39/83/81 33/82/80 32/84/82
f 39/83/81 32/84/82 38/85/83
f 38/85/83 32/84/82 31/86/84
f 14/87/85 37/88/72 12/89/86
f 12/89/86 37/88/72 44/90/71
f 12/89/86 44/90/71 15/91/87
f 15/91/87 11/92/88 12/89/86
f 30/93/37 38/94/83 17/95/38
f 17/95/38 38/94/83 31/96/84
f 29/97/89 24/98/90 30/99/91
f 30/99/91 24/98/90 16/100/92
f 30/99/91 16/100/92 15/101/93
f 29/97/89 28/102/94 24/98/90
f 24/98/90 28/102/94 27/103/95
f 24/98/90 27/103/95 26/104/96
f 26/104/96 25/105/97 24/98/90
f 30/99/91 15/101/93 38/106/98
f 38/106/98 15/101/93 44/107/99
f 38/106/98 44/107/99 39/108/100
f 39/108/100 44/107/99 40/109/101
f 40/109/101 44/107/99 41/110/102
f 41/110/102 44/107/99 42/111/103
f 42/111/103 44/107/99 43/112/104
# 44 vertices
# 112 texture params
# 104 normals
# 84 facets

# 1 groups
